<svg xmlns="http://www.w3.org/2000/svg" viewBox="-0.54 -0.80 353.77 508.14">
  <path fill="#dd9d37" d="M 346.5 462.26001 C 345.580017 462.22998 254.880005 458.590027 220.709991 430.349976 L 220.559998 430.22998 C 198.820007 413.51001 187.079987 392.880005 187.079987 381.960022 C 187.079987 375.830017 188.209991 375.130005 193.790009 373.619995 C 198.880005 372.25 208.579987 370.02002 208.579987 359.219971 C 208.579987 352.820007 205.329987 348.01001 199.640015 346 C 191.540009 343.140015 180.070007 346.630005 173.619995 351.869995 C 163.98999 342.369995 159.579987 329.330017 157.619995 318.059998 C 159.399994 318.25 161.029999 318.440002 162.600006 318.640015 C 166.75 319.150024 170.329987 319.590027 174.709991 319.590027 C 183.179993 319.590027 188.709991 315.869995 191.149994 308.52002 C 193.589996 301.179993 191.73999 292.970001 186.309998 287.100006 L 128.630005 224.690002 L 128.630005 168.170044 C 128.630005 156.48999 122.399994 153.52002 118.279999 151.549988 C 114.26001 149.630005 110.790009 147.969971 110.790009 133.670044 C 110.790009 110.179993 122.179993 80.070007 132.899994 63.679993 C 139.51001 53.570007 156.100006 39.380005 170.98999 28.549988 C 171.859985 33.799988 173.089996 38.080017 174.660004 41.549988 C 171.549988 43.289978 168.720001 44.650024 166.339996 45.469971 C 163.459991 46.460022 161.940002 49.589966 162.929993 52.459961 C 163.691162 54.681763 165.781464 56.173096 168.130005 56.170044 C 168.720001 56.170044 169.320007 56.079956 169.920013 55.869995 C 173.209991 54.73999 177.049988 52.849976 181.190002 50.469971 C 185.850006 54.27002 191.76001 55.459961 198.709991 55.459961 C 215.859985 55.459961 227.839996 43.950012 227.839996 27.460022 C 227.839996 23.549988 227.279999 20.280029 226.23999 17.549988 C 230.98999 13.609985 234.119995 10.890015 234.580017 10.48999 C 236.859985 8.48999 237.099976 5.01001 235.109985 2.72998 C 233.109985 0.440002 229.640015 0.200012 227.339996 2.190002 C 225.290009 3.97998 222.559998 6.309998 219.369995 8.960022 C 212.440002 4.429993 202.019989 3.839966 190.959991 3.839966 C 40.579987 3.839966 0.459991 147.790039 0.459991 232.839966 C 0.459991 340.960022 54.470001 407.469971 99.779999 444.23999 C 124.019989 463.909973 152.200012 480.26001 181.269989 491.52002 C 205.589996 500.940002 229.630005 506.340027 247.210022 506.340027 C 310.840027 506.340027 348.400024 473.26001 349.969971 471.849976 C 351.639954 470.35144 352.22998 467.987488 351.460022 465.880005 C 350.700012 463.780029 348.72998 462.330017 346.5 462.26001 Z M 216.839996 27.450012 C 216.839996 39.98999 207.470001 44.450012 198.709991 44.450012 C 196.320007 44.450012 193.959991 44.450012 191.769989 43.799988 C 200.359985 38.02002 209.290009 31.210022 216.769989 25.25 C 216.820007 25.940002 216.839996 26.679993 216.839996 27.450012 Z M 192.23999 14.849976 C 200.709991 14.890015 206.290009 15.450012 209.959991 16.609985 C 201.839996 23.070007 192.51001 30.130005 184.049988 35.75 C 182.730011 32.429993 181.720001 27.849976 181.109985 21.52002 C 180.920013 19.549988 180.769989 17.410034 180.660004 15.089966 C 184.019989 14.919983 187.470001 14.839966 190.959991 14.839966 C 191.390015 14.830017 191.820007 14.830017 192.23999 14.849976 Z M 247.210022 495.330017 C 220.279999 495.330017 160.640015 479.450012 106.709991 435.679993 C 63.26001 400.429993 11.459991 336.609985 11.459991 232.829956 C 11.459991 156.070007 45.440002 28.929993 169.690002 15.910034 C 169.690002 15.940002 169.690002 15.97998 169.700012 16.01001 C 152.769989 27.799988 131.920013 45.059998 123.690002 57.650024 C 111.809998 75.820007 99.790009 107.76001 99.790009 133.660034 C 99.790009 153.27002 106.299988 158 113.540009 161.459961 C 116.839996 163.040039 117.630005 163.420044 117.630005 168.160034 L 117.630005 226.829956 C 117.630005 228.209961 118.149994 229.549988 119.089996 230.559998 L 178.230011 294.549988 C 180.940002 297.480011 181.890015 301.5 180.709991 305.039978 C 180.019989 307.109985 179.190002 308.580017 174.709991 308.580017 C 171 308.580017 167.890015 308.200012 163.940002 307.719971 C 160.600006 307.309998 156.779999 306.840027 151.829987 306.539978 C 151.730011 306.530029 151.619995 306.530029 151.51001 306.52002 C 151.459991 306.51001 151.399994 306.51001 151.350006 306.51001 C 148.23999 306.330017 144.700012 306.210022 140.579987 306.210022 C 133.820007 306.210022 122.070007 309.580017 119.380005 332.200012 C 118.929993 335.97998 115.670013 338.830017 111.790009 338.830017 L 107.649994 338.830017 C 104.920013 338.830017 102.709991 336.619995 102.709991 333.890015 L 102.709991 314.450012 C 102.709991 311.419983 100.25 308.950012 97.209991 308.950012 C 94.170013 308.950012 91.709991 311.419983 91.709991 314.450012 L 91.709991 333.890015 C 91.709991 342.679993 98.859985 349.830017 107.649994 349.830017 L 111.790009 349.830017 C 121.23999 349.830017 129.200012 342.809998 130.309998 333.48999 C 131.190002 326.059998 133.690002 317.210022 140.579987 317.210022 C 142.660004 317.210022 144.579987 317.23999 146.359985 317.289978 C 148.390015 331.039978 153.609985 347.869995 166.350006 360.130005 C 152.160004 377.059998 139.549988 387.330017 132.709991 387.330017 C 122.929993 387.330017 119.600006 377.25 119.470001 376.849976 L 119.470001 376.840027 C 121.730011 371.630005 124.209991 366.969971 125.589996 364.599976 C 127.119995 361.969971 126.230011 358.609985 123.600006 357.080017 C 120.976379 355.552124 117.611023 356.438232 116.079987 359.059998 C 115.609985 359.880005 104.429993 379.200012 103.470001 392.820007 C 103.261749 395.851501 105.548706 398.478577 108.579987 398.690002 C 108.709991 398.700012 108.839996 398.710022 108.970001 398.710022 C 111.829987 398.710022 114.23999 396.48999 114.450012 393.590027 C 114.519989 392.559998 114.679993 391.450012 114.920013 390.289978 C 118.869995 394.650024 124.709991 398.330017 132.709991 398.330017 C 147.23999 398.330017 166.179993 378.22998 179.48999 361.409973 C 181.679993 358.700012 188.23999 356.02002 193.019989 355.950012 C 194.130005 355.940002 195.140015 356.059998 195.980011 356.359985 C 196.730011 356.630005 197.579987 356.929993 197.579987 359.210022 L 197.579987 359.320007 C 197.540009 361.22998 196.290009 361.539978 190.920013 363 C 185.119995 364.570007 176.660004 367.219971 176.109985 380.559998 C 176.089996 381.01001 176.079987 381.47998 176.079987 381.960022 C 176.079987 398.390015 191.579987 421.789978 213.779999 438.890015 C 242.090027 462.210022 302.070007 469.869995 330.559998 472.25 C 315.400024 481.630005 286.52002 495.330017 247.210022 495.330017 Z"/>
  <path fill="#ffdb5b" d="M 213.779999 438.890015 C 191.579987 421.789978 176.079987 398.390015 176.079987 381.960022 C 176.079987 381.47998 176.089996 381.02002 176.109985 380.559998 C 176.660004 367.22998 185.119995 364.570007 190.920013 363 C 196.290009 361.539978 197.529999 361.22998 197.579987 359.320007 L 197.579987 359.210022 C 197.579987 356.929993 196.730011 356.630005 195.980011 356.359985 C 195.140015 356.059998 194.130005 355.940002 193.029999 355.950012 C 188.23999 356.01001 181.679993 358.690002 179.5 361.409973 C 166.190002 378.22998 147.25 398.330017 132.720001 398.330017 C 124.720001 398.330017 118.880005 394.650024 114.929993 390.289978 C 114.690002 391.450012 114.529999 392.559998 114.459991 393.590027 C 114.25 396.48999 111.839996 398.710022 108.980011 398.710022 C 108.850006 398.710022 108.720001 398.700012 108.589996 398.690002 C 105.558716 398.478577 103.271759 395.851501 103.480011 392.820007 C 104.440002 379.200012 115.619995 359.880005 116.089996 359.059998 C 117.621033 356.438232 120.986389 355.552124 123.609985 357.080017 C 124.872437 357.812073 125.791718 359.016357 126.165039 360.427185 C 126.538361 361.837952 126.335083 363.339294 125.600006 364.599976 C 124.220001 366.969971 121.73999 371.630005 119.480011 376.840027 L 119.480011 376.849976 C 119.609985 377.25 122.940002 387.330017 132.720001 387.330017 C 139.559998 387.330017 152.170013 377.059998 166.359985 360.130005 C 153.619995 347.869995 148.399994 331.039978 146.369995 317.289978 C 144.589996 317.23999 142.670013 317.210022 140.589996 317.210022 C 133.700012 317.210022 131.200012 326.059998 130.320007 333.48999 C 129.209991 342.809998 121.25 349.830017 111.799988 349.830017 L 107.660004 349.830017 C 98.869995 349.830017 91.720001 342.679993 91.720001 333.890015 L 91.720001 314.450012 C 91.720001 311.419983 94.179993 308.950012 97.220001 308.950012 C 100.26001 308.950012 102.720001 311.419983 102.720001 314.450012 L 102.720001 333.890015 C 102.720001 336.619995 104.929993 338.830017 107.660004 338.830017 L 111.799988 338.830017 C 115.679993 338.830017 118.940002 335.97998 119.390015 332.200012 C 122.079987 309.580017 133.829987 306.210022 140.589996 306.210022 C 144.709991 306.210022 148.25 306.330017 151.359985 306.51001 C 151.410004 306.51001 151.470001 306.51001 151.519989 306.52002 C 151.630005 306.530029 151.73999 306.530029 151.839996 306.539978 C 156.790009 306.840027 160.609985 307.309998 163.950012 307.719971 C 167.899994 308.200012 171.01001 308.580017 174.720001 308.580017 C 179.200012 308.580017 180.029999 307.109985 180.720001 305.039978 C 181.899994 301.5 180.950012 297.480011 178.23999 294.549988 L 119.100006 230.559998 C 118.160431 229.545227 117.638947 228.212952 117.640015 226.829956 L 117.640015 168.160034 C 117.640015 163.420044 116.850006 163.040039 113.549988 161.459961 C 106.309998 158 99.799988 153.27002 99.799988 133.660034 C 99.799988 107.76001 111.820007 75.820007 123.700012 57.650024 C 131.929993 45.059998 152.779999 27.799988 169.709991 16.01001 C 169.700012 15.97998 169.700012 15.940002 169.700012 15.910034 C 45.450012 28.929993 11.470001 156.070007 11.470001 232.829956 C 11.470001 336.609985 63.269989 400.429993 106.720001 435.679993 C 160.649994 479.450012 220.290009 495.330017 247.219971 495.330017 C 286.530029 495.330017 315.409973 481.619995 330.570007 472.23999 C 302.070007 469.859985 242.090027 462.200012 213.779999 438.890015 Z M 56.329987 199.209961 C 55.28421 200.450745 53.742706 201.164795 52.119995 201.160034 C 50.869995 201.160034 49.609985 200.73999 48.579987 199.859985 C 47.463898 198.919922 46.768036 197.574097 46.646057 196.119934 C 46.524109 194.665771 46.986084 193.2229 47.929993 192.109985 C 54.950012 183.809998 69.579987 172.75 73.899994 169.549988 C 92.690002 155.660034 96.519989 155.660034 97.959991 155.660034 C 104.369995 155.660034 109.660004 161.02002 110.660004 162.089966 C 112.720001 164.309998 112.589996 167.790039 110.369995 169.859985 C 108.149567 171.920166 104.681885 171.799561 102.609985 169.589966 C 101.470001 168.390015 99.519989 167.01001 98.350006 166.719971 C 92.350006 169.059998 65.380005 188.5 56.329987 199.209961 Z M 85.670013 200.040039 C 83.559998 201.809998 81.880005 203.51001 80.910004 205 C 79.893219 206.563721 78.155243 207.507935 76.290009 207.51001 C 75.26001 207.51001 74.220001 207.219971 73.299988 206.619995 C 70.75 204.969971 70.029999 201.559998 71.679993 199.01001 C 78.450012 188.579956 101.519989 176.609985 104.130005 175.27002 C 106.829987 173.890015 110.140015 174.969971 111.519989 177.670044 C 112.910004 180.380005 111.829987 183.690002 109.130005 185.070007 C 106.559998 186.380005 103.429993 188.109985 100.190002 190.040039 C 103.366943 191.771606 105.342773 195.101807 105.339996 198.719971 C 105.339996 204.170044 100.910004 208.589966 95.459991 208.589966 C 90.459991 208.579956 86.320007 204.869995 85.670013 200.040039 Z"/>
  <path fill="#dd9d37" d="M 102.609985 169.599976 C 104.681885 171.80957 108.149567 171.930176 110.369995 169.869995 C 112.589996 167.799988 112.720001 164.320007 110.660004 162.099976 C 109.660004 161.030029 104.369995 155.670044 97.959991 155.670044 C 96.519989 155.670044 92.690002 155.670044 73.899994 169.559998 C 69.579987 172.76001 54.950012 183.820007 47.929993 192.119995 C 46.986084 193.23291 46.524109 194.675781 46.646057 196.129944 C 46.768036 197.584106 47.463898 198.929871 48.579987 199.869995 C 49.609985 200.75 50.869995 201.170044 52.119995 201.170044 C 53.690002 201.170044 55.23999 200.51001 56.329987 199.219971 C 65.380005 188.51001 92.350006 169.070007 98.350006 166.72998 C 99.519989 167.01001 101.470001 168.390015 102.609985 169.599976 Z"/>
  <path fill="#dd9d37" d="M 105.339996 198.709961 C 105.339996 194.959961 103.26001 191.709961 100.190002 190.030029 C 103.429993 188.099976 106.559998 186.369995 109.130005 185.059998 C 110.429352 184.39679 111.411499 183.243896 111.859863 181.855713 C 112.308197 180.467529 112.185944 178.957947 111.519989 177.660034 C 110.140015 174.959961 106.829987 173.880005 104.130005 175.26001 C 101.519989 176.599976 78.450012 188.570007 71.679993 199 C 70.029999 201.549988 70.75 204.959961 73.299988 206.609985 C 74.220001 207.209961 75.26001 207.5 76.290009 207.5 C 78.089996 207.5 79.850006 206.609985 80.910004 204.98999 C 81.880005 203.5 83.559998 201.799988 85.670013 200.030029 C 86.320007 204.859985 90.459991 208.579956 95.459991 208.579956 C 100.910004 208.579956 105.339996 204.170044 105.339996 198.709961 Z"/>
  <path fill="#ffdb5b" d="M 216.839996 27.450012 C 216.839996 26.679993 216.820007 25.940002 216.769989 25.25 C 209.290009 31.210022 200.359985 38.02002 191.769989 43.799988 C 193.959991 44.450012 196.320007 44.450012 198.709991 44.450012 C 207.470001 44.450012 216.839996 39.98999 216.839996 27.450012 Z M 180.660004 15.080017 C 180.769989 17.400024 180.920013 19.539978 181.109985 21.51001 C 181.720001 27.839966 182.730011 32.419983 184.049988 35.73999 C 192.51001 30.119995 201.839996 23.059998 209.959991 16.599976 C 206.290009 15.440002 200.709991 14.880005 192.23999 14.839966 C 191.820007 14.830017 191.390015 14.830017 190.959991 14.830017 C 187.470001 14.830017 184.019989 14.919983 180.660004 15.080017 Z"/>
</svg>
