<svg xmlns="http://www.w3.org/2000/svg" viewBox="173.93 37.57 197.23 216.77">
  <path fill="#dd9d37" d="M 178.51001 128.72998 C 176.317139 129.718811 174.930237 131.925293 174.98999 134.329956 C 175.039459 136.730713 176.520142 138.86908 178.75 139.76001 L 225.950012 158.660034 L 214.279999 208.809998 C 213.76001 211.049988 214.570007 213.390015 216.350006 214.839966 C 218.137573 216.280579 220.588806 216.579224 222.670013 215.609985 L 256.710022 199.670044 L 284.01001 250.190002 C 285.062317 252.125793 287.08667 253.333496 289.289978 253.339996 C 292.265991 253.343292 294.794373 251.16394 295.22998 248.220001 L 305.380005 179.72998 L 366.219971 157.130005 C 368.541199 156.266479 370.093994 154.066345 370.130005 151.589966 C 370.161438 149.111572 368.668335 146.867981 366.369995 145.940002 L 318.890015 126.77002 L 336.780029 76.859985 C 337.630005 74.48999 336.900024 71.839966 334.960022 70.22998 C 333.023804 68.620361 330.289307 68.388855 328.109985 69.650024 L 279.52002 97.929993 L 247.849976 42.049988 C 246.542358 39.747681 243.883545 38.570496 241.299988 39.150024 C 238.721008 39.737366 236.829224 41.941772 236.640015 44.580017 L 232.400024 104.349976 L 178.51001 128.72998 Z M 240.599976 113.799988 C 242.607483 112.892944 243.955383 110.95752 244.109985 108.76001 L 247.200012 65.23999 L 272.070007 109.119995 C 272.860596 110.518433 274.179016 111.541504 275.72998 111.959961 C 277.27002 112.369995 278.929993 112.160034 280.309998 111.349976 L 319.929993 88.290039 L 305.640015 128.140015 C 304.559448 131.174988 306.063354 134.522339 309.049988 135.72998 L 347.52002 151.26001 L 297.869995 169.709961 C 295.821045 170.473511 294.34729 172.288086 294.02002 174.450012 L 286 228.619995 L 264.570007 188.97998 C 263.48999 186.97998 261.429993 185.829956 259.289978 185.829956 C 258.440002 185.829956 257.570007 186.01001 256.75 186.400024 L 228.769989 199.48999 L 238.799988 156.359985 C 239.469971 153.469971 237.940002 150.530029 235.190002 149.429993 L 196.279999 133.849976 L 240.599976 113.799988 Z"/>
  <path fill="#ffdb5b" d="M 235.190002 149.429993 C 237.939941 150.531128 239.473694 153.475403 238.799988 156.359985 L 228.769989 199.48999 L 256.75 186.400024 C 257.570007 186.01001 258.440002 185.829956 259.289978 185.829956 C 261.429993 185.829956 263.48999 186.97998 264.570007 188.97998 L 286 228.619995 L 294.02002 174.450012 C 294.34729 172.288086 295.821045 170.473511 297.869995 169.709961 L 347.52002 151.26001 L 309.049988 135.72998 C 306.063354 134.522339 304.559448 131.174988 305.640015 128.140015 L 319.929993 88.290039 L 280.309998 111.349976 C 278.925476 112.155029 277.276978 112.374634 275.72998 111.959961 C 274.179016 111.541504 272.860596 110.518433 272.070007 109.119995 L 247.200012 65.23999 L 244.109985 108.76001 C 243.955383 110.95752 242.607483 112.892944 240.599976 113.799988 L 196.279999 133.849976 L 235.190002 149.429993 Z"/>
</svg>
