<svg xmlns="http://www.w3.org/2000/svg" viewBox="239.58 262.09 173.62 177.91">
  <path fill="#dd9d37" d="M 403.710022 306.210022 L 342.960022 328.75 L 315.099976 266.869995 C 314.03125 264.500427 311.55896 263.087769 308.974915 263.370087 C 306.390808 263.652405 304.281921 265.565552 303.75 268.109985 L 288.450012 341.859985 L 243.719971 368.51001 C 241.706665 369.713074 240.578003 371.97821 240.830017 374.309998 C 241.081177 376.639465 242.66748 378.608582 244.890015 379.349976 L 286.530029 393.280029 L 277.950012 429.789978 C 277.359985 432.289978 278.429993 434.890015 280.609985 436.25 C 282.78717 437.613647 285.591614 437.436646 287.580017 435.809998 L 331.01001 400.400024 L 382.599976 437.849976 C 383.650024 438.619995 384.890015 439 386.130005 439 C 387.349976 439 388.559998 438.630005 389.609985 437.880005 C 391.709473 436.389648 392.619812 433.723083 391.869995 431.26001 L 372.090027 366.02002 L 410.570007 315.460022 C 412.181885 313.335571 412.198181 310.402222 410.609985 308.26001 C 409.021973 306.117981 406.209961 305.282532 403.710022 306.210022 Z M 360.690002 361.200012 C 359.520752 362.729309 359.159668 364.728271 359.719971 366.570007 L 375.210022 417.659973 L 334.320007 387.969971 C 333.292114 387.228943 332.057129 386.830139 330.789978 386.830017 C 329.450012 386.830017 328.099976 387.280029 327 388.179993 L 293.669983 415.359985 L 299.469971 390.700012 C 300.177368 387.682251 298.469727 384.622375 295.530029 383.640015 L 261.099976 372.119995 L 296.859985 350.820007 C 298.30957 349.960815 299.329773 348.530334 299.669983 346.880005 L 311.75 288.649994 L 334.320007 338.789978 C 335.619995 341.669983 338.919983 343.049988 341.880005 341.950012 L 388.5 324.650024 L 360.690002 361.200012 Z"/>
  <path fill="#ffdb5b" d="M 334.320007 338.799988 L 311.75 288.660004 L 299.669983 346.890015 C 299.329773 348.540344 298.30957 349.970825 296.859985 350.830017 L 261.099976 372.130005 L 295.530029 383.650024 C 298.469727 384.632385 300.177368 387.692261 299.469971 390.710022 L 293.669983 415.369995 L 327 388.179993 C 328.099976 387.280029 329.450012 386.830017 330.789978 386.830017 C 332.030029 386.830017 333.26001 387.210022 334.320007 387.969971 L 375.210022 417.659973 L 359.719971 366.570007 C 359.159973 364.72998 359.52002 362.72998 360.690002 361.200012 L 388.5 324.650024 L 341.880005 341.950012 C 338.923706 343.05426 335.617554 341.676697 334.320007 338.799988 Z"/>
</svg>
